Cover: 
 
http://i.imgur.com/e75CY.png


Release Title: Anonymous (2011) 


Ratings: 6.8/10 | 
 
http://www.imdb.com/title/tt1521197/


Plot: The theory that it was in fact Edward De Vere, Earl of Oxford, who penned Shakespeare's plays. Set against the backdrop of the succession of Queen Elizabeth I and the Essex rebellion against her.

Director: Roland Emmerich

Writer: John Orloff


Stars:  Rhys Ifans, Vanessa Redgrave and David Thewlis

Genres: Drama | History | Thriller


					


General
Format                         : MPEG-4
Format profile                 : Base Media / Version 2
File size                      : 805 MiB
Duration                       : 2h 9mn
Overall bit rate mode          : Variable
Overall bit rate               : 866 Kbps

Source                         : Anonymous.2011.720p.BluRay.x264-SPARKS (Thanks!)


Video
ID                             : 1
Format                         : AVC
Format/Info                    : Advanced Video Codec
Duration                       : 2h 9mn
Bit rate mode                  : Variable
Bit rate                       : 750 Kbps
Maximum bit rate               : 50.0 Mbps
Width                          : 1 276 pixels
Height                         : 544 pixels
Display aspect ratio           : 2.35:1
Frame rate mode                : Variable
Frame rate                     : 23.976 fps
Scan type                      : Progressive
Stream size                    : 696 MiB (86%)
Writing library                : x264 core 125


Audio
ID                             : 2
Format                         : AAC
Format/Info                    : Advanced Audio Codec
Format profile                 : LC
Duration                       : 2h 9mn
Bit rate mode                  : Variable
Bit rate                       : 112 Kbps
Channel(s)                     : 2 channels
Channel positions              : Front: L R
Sampling rate                  : 48.0 KHz
Stream size                    : 104 MiB (13%)
Language                       : English



Subtitle                       : Yes (English)


Screens:

 
http://i.imgur.com/NjOkK.png 
http://i.imgur.com/KLHSW.png 
http://i.imgur.com/47Jkv.jpg 
http://i.imgur.com/Ck5vC.png 
http://i.imgur.com/JBfdT.png

------------------------------------------------------------------------


Notes:

* Best played on VLC Media Player.
* Install shark007 codecs in case of any kind of problem in playback (For non-VLC Media Player users).
* Alternatively, install Core AVC codecs, the fastest decoder that there is coupled with Community Center Codec Pack and play on Windows Media Player Classic.
* Read NFO
* Help in seeding this torrent as much as you can. 



Greets to: srkfan, VYTO, MgB, staff members at ExtraTorrent, TPB,KAT, 1337x, PublicHD, Ahashare,
SilverTorrent, TorrentMafia, P2PDL, and all others


Encoder Notes: Looking For Early Access To Anything You Can Provide DVDScr, R5, DVDRips, BluRay, Direct Audio, Early Music
Releases, Seedboxes, Links, Dedicated Servers anything u can provide, Advance / Promo CDs/DVDs. If You Got anything to
offer contact me at "contact@tinym.eu"


Facebook Fan Page: www . facebook . com / p2pdl

                  Enhanced for best viewing experience. Enjoy!